<?xml version="1.0" encoding="UTF-8" standalone="no"?>
<!DOCTYPE svg PUBLIC "-//W3C//DTD SVG 1.1//EN" "http://www.w3.org/Graphics/SVG/1.1/DTD/svg11.dtd">
<svg width="100%" height="100%" viewBox="0 0 1482 1380" version="1.1" xmlns="http://www.w3.org/2000/svg" xmlns:xlink="http://www.w3.org/1999/xlink" xml:space="preserve" xmlns:serif="http://www.serif.com/" style="fill-rule:evenodd;clip-rule:evenodd;stroke-linejoin:round;stroke-miterlimit:2;">
    <g transform="matrix(1,0,0,1,-1680,-3288)">
        <g id="transparent" transform="matrix(0.597496,0,0,0.392994,1680.02,3288.63)">
            <rect x="0" y="0" width="2480.32" height="3507.87" style="fill:none;"/>
            <g transform="matrix(14.5282,0,0,22.0882,106.252,543.8)">
                <g>
                    <g transform="matrix(0.783784,0,0,0.783784,3.53826e-05,-5.9798e-06)">
                        <path d="M52.586,107.733C62.639,73.577 115.119,71.135 115.119,30C115.119,30 116.786,13 105.119,0C105.119,0 127.453,17.333 127.453,41C127.453,82 61.644,97.19 56.453,137.667C56.453,137.667 46.719,127.667 52.586,107.733Z" style="fill:url(#_Linear1);"/>
                        <clipPath id="_clip2">
                            <path d="M52.586,107.733C62.639,73.577 115.119,71.135 115.119,30C115.119,30 116.786,13 105.119,0C105.119,0 127.453,17.333 127.453,41C127.453,82 61.644,97.19 56.453,137.667C56.453,137.667 46.719,127.667 52.586,107.733Z"/>
                        </clipPath>
                        <g clip-path="url(#_clip2)">
                            <path d="M104.085,-0.895C123.913,4.484 127.453,28.958 127.453,41C127.453,81.069 59.64,111.587 56.561,135.978C55.699,130.031 54.862,107.801 76.221,91.188C101.421,71.588 121.112,60.964 120.659,32.238C120.452,19.086 111.472,5.469 104.085,-0.895Z" style="fill:url(#_Linear3);"/>
                        </g>
                    </g>
                    <g transform="matrix(0.783784,0,0,0.783784,3.53826e-05,-5.9798e-06)">
                        <path d="M65.415,4C65.415,42.092 146.211,49.245 148.415,100.667C148.885,111.623 144.907,120.914 138.532,129.267C135.863,132.764 129.415,139.319 129.415,139.319C129.415,139.319 146.382,108.467 127.749,87.667C113.415,71.667 62.548,49.131 59.082,24C58.045,12.296 61.908,8.432 65.415,4Z" style="fill:url(#_Linear4);"/>
                    </g>
                    <g transform="matrix(0.783784,0,0,0.783784,3.53826e-05,-5.9798e-06)">
                        <path d="M129.42,139.276C129.42,139.276 146.382,108.467 127.749,87.667C113.415,71.667 62.548,49.131 59.082,24C58.084,12.736 61.624,8.734 65.018,4.498C58.321,19.16 69.606,34.243 91.951,48.333C114.38,62.476 130.237,76.619 130.237,76.619C155.951,103.762 129.42,139.276 129.42,139.276Z" style="fill:url(#_Linear5);"/>
                    </g>
                    <g transform="matrix(0.783784,0,0,0.783784,3.53826e-05,-5.9798e-06)">
                        <path d="M129.42,139.276C129.42,139.276 146.382,108.467 127.749,87.667C113.415,71.667 62.548,49.131 59.082,24C58.084,12.736 61.624,8.734 65.018,4.498C58.321,19.16 69.606,34.243 91.951,48.333C114.38,62.476 130.237,76.619 130.237,76.619C155.951,103.762 129.42,139.276 129.42,139.276Z" style="fill:url(#_Linear6);"/>
                    </g>
                    <g transform="matrix(0.783784,0,0,0.783784,3.53826e-05,-5.9798e-06)">
                        <path d="M62.727,13.157C62.765,9.062 64.888,4.541 65.339,3.977C65.532,3.735 65.468,3.695 65.339,3.977C62.079,11.114 62.721,18.549 67.372,25.719C72.111,33.024 81.195,40.827 92.278,47.815C114.754,61.988 130.645,76.162 130.645,76.162C130.657,76.173 130.67,76.185 130.682,76.198C143.721,89.962 143.36,104.92 139.893,117.366C138.971,120.677 137.816,123.912 136.62,126.628C133.339,134.074 128.926,140.069 129.088,139.791C133.76,131.782 135.265,127.882 136.173,125.715C137.165,123.35 138.106,120.744 138.881,117.962C142.25,105.87 142.467,90.434 129.81,77.059C129.186,76.505 113.553,62.678 91.624,48.851C80.362,41.749 71.896,34.387 67.08,26.963C64.04,22.277 62.684,17.857 62.727,13.157Z" style="fill:white;"/>
                    </g>
                </g>
            </g>
        </g>
    </g>
    <defs>
        <linearGradient id="_Linear1" x1="0" y1="0" x2="1" y2="0" gradientUnits="userSpaceOnUse" gradientTransform="matrix(-63.0178,85.3284,-85.3284,-63.0178,119.57,29.4665)"><stop offset="0" style="stop-color:rgb(64,119,0);stop-opacity:1"/><stop offset="1" style="stop-color:rgb(132,185,0);stop-opacity:1"/></linearGradient>
        <linearGradient id="_Linear3" x1="0" y1="0" x2="1" y2="0" gradientUnits="userSpaceOnUse" gradientTransform="matrix(48.9269,-76.3259,76.3259,48.9269,73.3829,103.835)"><stop offset="0" style="stop-color:rgb(64,119,0);stop-opacity:1"/><stop offset="1" style="stop-color:rgb(132,185,0);stop-opacity:1"/></linearGradient>
        <linearGradient id="_Linear4" x1="0" y1="0" x2="1" y2="0" gradientUnits="userSpaceOnUse" gradientTransform="matrix(81.9527,85.0107,-85.0107,81.9527,67.0891,21.9499)"><stop offset="0" style="stop-color:rgb(96,105,136);stop-opacity:1"/><stop offset="1" style="stop-color:rgb(230,234,245);stop-opacity:1"/></linearGradient>
        <linearGradient id="_Linear5" x1="0" y1="0" x2="1" y2="0" gradientUnits="userSpaceOnUse" gradientTransform="matrix(-70.9441,-70.9442,70.9442,-70.9441,131.306,92.8941)"><stop offset="0" style="stop-color:rgb(96,105,136);stop-opacity:1"/><stop offset="0.5" style="stop-color:rgb(230,234,245);stop-opacity:1"/><stop offset="1" style="stop-color:rgb(165,175,197);stop-opacity:1"/></linearGradient>
        <linearGradient id="_Linear6" x1="0" y1="0" x2="1" y2="0" gradientUnits="userSpaceOnUse" gradientTransform="matrix(-70.9441,-70.9442,70.9442,-70.9441,131.306,92.8941)"><stop offset="0" style="stop-color:rgb(96,105,136);stop-opacity:1"/><stop offset="0.5" style="stop-color:rgb(230,234,245);stop-opacity:1"/><stop offset="1" style="stop-color:rgb(165,175,197);stop-opacity:1"/></linearGradient>
    </defs>
</svg>
